<svg width="138" height="31" viewBox="0 0 138 31" fill="none" xmlns="http://www.w3.org/2000/svg">
<path d="M0.72 14.57C0.72 12.83 1.08 11.31 1.8 10.01C2.52 8.71 3.52 7.71 4.8 7.01C6.1 6.31 7.58 5.96 9.24 5.96C11.38 5.96 13.18 6.55 14.64 7.73C16.1 8.89 17.04 10.52 17.46 12.62H11.22C10.86 11.52 10.16 10.97 9.12 10.97C8.38 10.97 7.79 11.28 7.35 11.9C6.93 12.5 6.72 13.39 6.72 14.57C6.72 15.75 6.93 16.65 7.35 17.27C7.79 17.89 8.38 18.2 9.12 18.2C10.18 18.2 10.88 17.65 11.22 16.55H17.46C17.04 18.63 16.1 20.26 14.64 21.44C13.18 22.62 11.38 23.21 9.24 23.21C7.58 23.21 6.1 22.86 4.8 22.16C3.52 21.46 2.52 20.46 1.8 19.16C1.08 17.86 0.72 16.33 0.72 14.57ZM32.0227 6.02C33.9427 6.02 35.4627 6.67 36.5827 7.97C37.7227 9.25 38.2927 10.99 38.2927 13.19V23H32.4127V13.97C32.4127 13.01 32.1627 12.26 31.6627 11.72C31.1627 11.16 30.4927 10.88 29.6527 10.88C28.7727 10.88 28.0827 11.16 27.5827 11.72C27.0827 12.26 26.8327 13.01 26.8327 13.97V23H20.9527V0.8H26.8327V8.57C27.3527 7.81 28.0527 7.2 28.9327 6.74C29.8327 6.26 30.8627 6.02 32.0227 6.02ZM41.6091 14.57C41.6091 12.83 41.9191 11.31 42.5391 10.01C43.1791 8.71 44.0391 7.71 45.1191 7.01C46.2191 6.31 47.4391 5.96 48.7791 5.96C49.9391 5.96 50.9391 6.19 51.7791 6.65C52.6191 7.11 53.2691 7.73 53.7291 8.51V6.17H59.6091V23H53.7291V20.66C53.2691 21.44 52.6091 22.06 51.7491 22.52C50.9091 22.98 49.9191 23.21 48.7791 23.21C47.4391 23.21 46.2191 22.86 45.1191 22.16C44.0391 21.46 43.1791 20.46 42.5391 19.16C41.9191 17.84 41.6091 16.31 41.6091 14.57ZM53.7291 14.57C53.7291 13.49 53.4291 12.64 52.8291 12.02C52.2491 11.4 51.5291 11.09 50.6691 11.09C49.7891 11.09 49.0591 11.4 48.4791 12.02C47.8991 12.62 47.6091 13.47 47.6091 14.57C47.6091 15.65 47.8991 16.51 48.4791 17.15C49.0591 17.77 49.7891 18.08 50.6691 18.08C51.5291 18.08 52.2491 17.77 52.8291 17.15C53.4291 16.53 53.7291 15.67 53.7291 14.57ZM73.9397 17.99V23H71.3897C67.0897 23 64.9397 20.87 64.9397 16.61V11.06H62.8697V6.17H64.9397V2.09H70.8497V6.17H73.9097V11.06H70.8497V16.7C70.8497 17.16 70.9497 17.49 71.1497 17.69C71.3697 17.89 71.7297 17.99 72.2297 17.99H73.9397ZM77.4466 14.78C77.4466 13.1 77.7766 11.63 78.4366 10.37C79.1166 9.09 80.0466 8.11 81.2266 7.43C82.4266 6.73 83.7766 6.38 85.2766 6.38C86.8366 6.38 88.1766 6.74 89.2966 7.46C90.4366 8.18 91.2566 9.1 91.7566 10.22V6.62H93.8566V23H91.7566V19.37C91.2366 20.49 90.4066 21.42 89.2666 22.16C88.1466 22.88 86.8066 23.24 85.2466 23.24C83.7666 23.24 82.4266 22.89 81.2266 22.19C80.0466 21.49 79.1166 20.5 78.4366 19.22C77.7766 17.94 77.4466 16.46 77.4466 14.78ZM91.7566 14.81C91.7566 13.49 91.4866 12.33 90.9466 11.33C90.4066 10.33 89.6666 9.56 88.7266 9.02C87.8066 8.48 86.7866 8.21 85.6666 8.21C84.5066 8.21 83.4666 8.47 82.5466 8.99C81.6266 9.51 80.8966 10.27 80.3566 11.27C79.8366 12.25 79.5766 13.42 79.5766 14.78C79.5766 16.12 79.8366 17.3 80.3566 18.32C80.8966 19.32 81.6266 20.09 82.5466 20.63C83.4666 21.15 84.5066 21.41 85.6666 21.41C86.7866 21.41 87.8066 21.14 88.7266 20.6C89.6666 20.06 90.4066 19.29 90.9466 18.29C91.4866 17.29 91.7566 16.13 91.7566 14.81ZM101.771 10.22C102.291 9.12 103.111 8.21 104.231 7.49C105.371 6.75 106.721 6.38 108.281 6.38C109.761 6.38 111.091 6.73 112.271 7.43C113.471 8.11 114.401 9.09 115.061 10.37C115.741 11.63 116.081 13.1 116.081 14.78C116.081 16.46 115.741 17.94 115.061 19.22C114.401 20.5 113.471 21.49 112.271 22.19C111.091 22.89 109.761 23.24 108.281 23.24C106.741 23.24 105.401 22.88 104.261 22.16C103.121 21.42 102.291 20.5 101.771 19.4V30.74H99.7008V6.62H101.771V10.22ZM113.951 14.78C113.951 13.42 113.681 12.25 113.141 11.27C112.621 10.27 111.901 9.51 110.981 8.99C110.061 8.47 109.021 8.21 107.861 8.21C106.741 8.21 105.711 8.48 104.771 9.02C103.851 9.56 103.121 10.33 102.581 11.33C102.041 12.33 101.771 13.49 101.771 14.81C101.771 16.13 102.041 17.29 102.581 18.29C103.121 19.29 103.851 20.06 104.771 20.6C105.711 21.14 106.741 21.41 107.861 21.41C109.021 21.41 110.061 21.15 110.981 20.63C111.901 20.09 112.621 19.32 113.141 18.32C113.681 17.3 113.951 16.12 113.951 14.78ZM123.065 10.22C123.585 9.12 124.405 8.21 125.525 7.49C126.665 6.75 128.015 6.38 129.575 6.38C131.055 6.38 132.385 6.73 133.565 7.43C134.765 8.11 135.695 9.09 136.355 10.37C137.035 11.63 137.375 13.1 137.375 14.78C137.375 16.46 137.035 17.94 136.355 19.22C135.695 20.5 134.765 21.49 133.565 22.19C132.385 22.89 131.055 23.24 129.575 23.24C128.035 23.24 126.695 22.88 125.555 22.16C124.415 21.42 123.585 20.5 123.065 19.4V30.74H120.995V6.62H123.065V10.22ZM135.245 14.78C135.245 13.42 134.975 12.25 134.435 11.27C133.915 10.27 133.195 9.51 132.275 8.99C131.355 8.47 130.315 8.21 129.155 8.21C128.035 8.21 127.005 8.48 126.065 9.02C125.145 9.56 124.415 10.33 123.875 11.33C123.335 12.33 123.065 13.49 123.065 14.81C123.065 16.13 123.335 17.29 123.875 18.29C124.415 19.29 125.145 20.06 126.065 20.6C127.005 21.14 128.035 21.41 129.155 21.41C130.315 21.41 131.355 21.15 132.275 20.63C133.195 20.09 133.915 19.32 134.435 18.32C134.975 17.3 135.245 16.12 135.245 14.78Z" fill="white"/>
</svg>
