<svg width="190" height="30" viewBox="0 0 190 30" fill="none" xmlns="http://www.w3.org/2000/svg">
<g clip-path="url(#clip0)">
<path d="M29.9218 11.508C29.7254 10.9005 29.1866 10.469 28.5492 10.4116L19.8903 9.62535L16.4664 1.61131C16.2139 1.02398 15.639 0.643799 15.0002 0.643799C14.3613 0.643799 13.7864 1.02398 13.5339 1.61268L10.11 9.62535L1.44977 10.4116C0.813463 10.4704 0.276035 10.9005 0.0785047 11.508C-0.119025 12.1154 0.0633981 12.7817 0.544749 13.2017L7.08979 18.9418L5.15981 27.4433C5.01859 28.0684 5.26121 28.7146 5.77987 29.0895C6.05865 29.2909 6.38482 29.3935 6.71373 29.3935C6.99732 29.3935 7.27863 29.317 7.53109 29.166L15.0002 24.702L22.4665 29.166C23.0128 29.4946 23.7015 29.4647 24.2191 29.0895C24.738 28.7134 24.9803 28.0671 24.8391 27.4433L22.9091 18.9418L29.4542 13.2029C29.9355 12.7817 30.1193 12.1166 29.9218 11.508V11.508Z" fill="#FFC107"/>
</g>
<g clip-path="url(#clip1)">
<path d="M69.9218 11.508C69.7254 10.9005 69.1866 10.469 68.5492 10.4116L59.8903 9.62535L56.4664 1.61131C56.2139 1.02398 55.639 0.643799 55.0002 0.643799C54.3613 0.643799 53.7864 1.02398 53.5339 1.61268L50.11 9.62535L41.4498 10.4116C40.8135 10.4704 40.276 10.9005 40.0785 11.508C39.881 12.1154 40.0634 12.7817 40.5447 13.2017L47.0898 18.9418L45.1598 27.4433C45.0186 28.0684 45.2612 28.7146 45.7799 29.0895C46.0587 29.2909 46.3848 29.3935 46.7137 29.3935C46.9973 29.3935 47.2786 29.317 47.5311 29.166L55.0002 24.702L62.4665 29.166C63.0128 29.4946 63.7015 29.4647 64.2191 29.0895C64.738 28.7134 64.9803 28.0671 64.8391 27.4433L62.9091 18.9418L69.4542 13.2029C69.9355 12.7817 70.1193 12.1166 69.9218 11.508V11.508Z" fill="#FFC107"/>
</g>
<g clip-path="url(#clip2)">
<path d="M109.922 11.508C109.725 10.9005 109.187 10.469 108.549 10.4116L99.8903 9.62535L96.4664 1.61131C96.2139 1.02398 95.639 0.643799 95.0002 0.643799C94.3613 0.643799 93.7864 1.02398 93.5339 1.61268L90.11 9.62535L81.4498 10.4116C80.8135 10.4704 80.276 10.9005 80.0785 11.508C79.881 12.1154 80.0634 12.7817 80.5447 13.2017L87.0898 18.9418L85.1598 27.4433C85.0186 28.0684 85.2612 28.7146 85.7799 29.0895C86.0587 29.2909 86.3848 29.3935 86.7137 29.3935C86.9973 29.3935 87.2786 29.317 87.5311 29.166L95.0002 24.702L102.466 29.166C103.013 29.4946 103.702 29.4647 104.219 29.0895C104.738 28.7134 104.98 28.0671 104.839 27.4433L102.909 18.9418L109.454 13.2029C109.936 12.7817 110.119 12.1166 109.922 11.508V11.508Z" fill="#FFC107"/>
</g>
<g clip-path="url(#clip3)">
<path d="M149.922 11.508C149.725 10.9005 149.187 10.469 148.549 10.4116L139.89 9.62535L136.466 1.61131C136.214 1.02398 135.639 0.643799 135 0.643799C134.361 0.643799 133.786 1.02398 133.534 1.61268L130.11 9.62535L121.45 10.4116C120.813 10.4704 120.276 10.9005 120.079 11.508C119.881 12.1154 120.063 12.7817 120.545 13.2017L127.09 18.9418L125.16 27.4433C125.019 28.0684 125.261 28.7146 125.78 29.0895C126.059 29.2909 126.385 29.3935 126.714 29.3935C126.997 29.3935 127.279 29.317 127.531 29.166L135 24.702L142.466 29.166C143.013 29.4946 143.702 29.4647 144.219 29.0895C144.738 28.7134 144.98 28.0671 144.839 27.4433L142.909 18.9418L149.454 13.2029C149.936 12.7817 150.119 12.1166 149.922 11.508V11.508Z" fill="#FFC107"/>
</g>
<g clip-path="url(#clip4)">
<path d="M189.922 11.508C189.725 10.9005 189.187 10.469 188.549 10.4116L179.89 9.62535L176.466 1.61131C176.214 1.02398 175.639 0.643799 175 0.643799C174.361 0.643799 173.786 1.02398 173.534 1.61268L170.11 9.62535L161.45 10.4116C160.813 10.4704 160.276 10.9005 160.079 11.508C159.881 12.1154 160.063 12.7817 160.545 13.2017L167.09 18.9418L165.16 27.4433C165.019 28.0684 165.261 28.7146 165.78 29.0895C166.059 29.2909 166.385 29.3935 166.714 29.3935C166.997 29.3935 167.279 29.317 167.531 29.166L175 24.702L182.466 29.166C183.013 29.4946 183.702 29.4647 184.219 29.0895C184.738 28.7134 184.98 28.0671 184.839 27.4433L182.909 18.9418L189.454 13.2029C189.936 12.7817 190.119 12.1166 189.922 11.508V11.508Z" fill="#FFC107"/>
</g>
<defs>
<clipPath id="clip0">
<rect width="30" height="30" fill="white"/>
</clipPath>
<clipPath id="clip1">
<rect width="30" height="30" fill="white" transform="translate(40)"/>
</clipPath>
<clipPath id="clip2">
<rect width="30" height="30" fill="white" transform="translate(80)"/>
</clipPath>
<clipPath id="clip3">
<rect width="30" height="30" fill="white" transform="translate(120)"/>
</clipPath>
<clipPath id="clip4">
<rect width="30" height="30" fill="white" transform="translate(160)"/>
</clipPath>
</defs>
</svg>
